# xmcd
#
# Track frame offsets: 
#        150
#        10701
#        22489
#        36607
#        50790
#        61761
#        72360
#        81831
#        92621
#        103190
#        111908
#        122988
#        136921
#        146431
#        156993
#        168210
#        179908
#        190402
#        201542
#        210302
#
# Disc length: 2913 seconds
#
# Revision: 0
# Processed by: cddbd v1.5.2PL0 Copyright (c) Steve Scherf et al.
# Submitted via: ExactAudioCopy v1.0b3
#
DISCID=340b5f14
DTITLE=Merle Travis - Hot Pickin' - Disc 2
DYEAR=2010
DGENRE=Country
TTITLE0=T for Texas (Blue Yodel No. 1)
TTITLE1=Blues Stay Away From Me
TTITLE2=Start Even
TTITLE3=I Got A Mean Old Woman
TTITLE4=Guitar Rag
TTITLE5=Lost John Boogie
TTITLE6=Deep South
TTITLE7=Kinfolks In Carolina
TTITLE8=Rainy Day Feelin'
TTITLE9=Cannonball Rag
TTITLE10=Blue Smoke
TTITLE11=Black Diamond Blues
TTITLE12=Saturday Night Shuffle
TTITLE13=Bugle Call Rag
TTITLE14=Tuck Me To Sleep In My Old 'Tucky Home
TTITLE15=The Memphis Blues
TTITLE16=Blue Bell
TTITLE17=The Waltz You Saved For Me
TTITLE18=Rockabye Rag
TTITLE19=Walkin' The Strings
EXTD=
EXTT0=
EXTT1=
EXTT2=
EXTT3=
EXTT4=
EXTT5=
EXTT6=
EXTT7=
EXTT8=
EXTT9=
EXTT10=
EXTT11=
EXTT12=
EXTT13=
EXTT14=
EXTT15=
EXTT16=
EXTT17=
EXTT18=
EXTT19=
PLAYORDER=
